<svg width="22" height="22" viewBox="0 0 22 22" fill="none" xmlns="http://www.w3.org/2000/svg">
    <path
        d="M9.83333 13.3333H11.5833C13.8385 13.3333 15.6667 11.5052 15.6667 9.25C15.6667 6.99483 13.8385 5.16667 11.5833 5.16667H7.5V16.8333H9.83333V13.3333ZM1.66667 0.5H20.3333C20.9777 0.5 21.5 1.02234 21.5 1.66667V20.3333C21.5 20.9777 20.9777 21.5 20.3333 21.5H1.66667C1.02234 21.5 0.5 20.9777 0.5 20.3333V1.66667C0.5 1.02234 1.02234 0.5 1.66667 0.5ZM9.83333 7.5H11.5833C12.5498 7.5 13.3333 8.2835 13.3333 9.25C13.3333 10.2165 12.5498 11 11.5833 11H9.83333V7.5Z"
        fill="black" />
</svg>